# AST/ASF file generated using VICON BodyLanguage
# -----------------------------------------------
:version 1.10
:name VICON
:units
  mass 1.0
  length 0.45
  angle deg
:documentation
   .ast/.asf automatically generated from VICON data using
   VICON BodyBuilder and BodyLanguage model FoxedUp or BRILLIANT.MOD
:root
   order TX TY TZ RX RY RZ
   axis XYZ
   position 0 0 0  
   orientation 0 0 0 
:bonedata
  begin
     id 1 
     name lhipjoint
     direction 0.702568 -0.596508 0.388042 
     length 2.56661 
     axis 0 0 0  XYZ
  end
  begin
     id 2 
     name lfemur
     direction 0.34202 -0.939693 0  
     length 6.58374  
     axis 0 0 20  XYZ
    dof rx ry rz
    limits (-160.0 20.0)
           (-70.0 70.0)
           (-60.0 70.0)
  end
  begin
     id 3 
     name ltibia
     direction 0.34202 -0.939693 0   
     length 6.62538   
     axis 0 0 20   XYZ
    dof rx
    limits (-10.0 170.0)
  end
  begin
     id 4 
     name lfoot
     direction 0.10455 -0.287249 0.952133   
     length 2.26699   
     axis -90 7.62852e-016 20   XYZ
    dof rx rz
    limits (-45.0 90.0)
           (-70.0 20.0)
  end
  begin
     id 5 
     name ltoes
     direction 1.53572e-011 -4.22322e-011 1   
     length 1.12949   
     axis -90 7.62852e-016 20   XYZ
    dof rx
    limits (-90.0 20.0)
  end
  begin
     id 6 
     name rhipjoint
     direction -0.728055 -0.574632 0.373811   
     length 2.66432  
     axis 0 0 0  XYZ 
  end
  begin
     id 7 
     name rfemur
     direction -0.34202 -0.939693 0   
     length 6.66732   
     axis 0 0 -20   XYZ
    dof rx ry rz
    limits (-160.0 20.0)
           (-70.0 70.0)
           (-70.0 60.0)
  end
  begin
     id 8 
     name rtibia
     direction -0.34202 -0.939693 0   
     length 6.59288   
     axis 0 0 -20   XYZ
    dof rx
    limits (-10.0 170.0)
 end
 begin
     id 9 
     name rfoot
     direction -0.119193 -0.327479 0.93731   
     length 2.38061  
     axis -90 -7.62852e-016 -20   XYZ
    dof rx rz
    limits (-45.0 90.0)
           (-20.0 70.0)
  end
  begin
     id 10 
     name rtoes
     direction -1.53547e-011 -4.21827e-011 1   
     length 1.17899   
     axis -90 -7.62852e-016 -20   XYZ
    dof rx
    limits (-90.0 20.0)
  end
  begin
     id 11 
     name lowerback
     direction -0.000416114 0.999912 -0.0132284   
     length 2.12109   
     axis 0 0 0   XYZ
    dof rx ry rz
    limits (-20.0 45.0)
           (-30.0 30.0)
           (-30.0 30.0)
  end
  begin
     id 12 
     name upperback
     direction -0.00136371 0.99809 0.0617608   
     length 2.10067   
     axis 0 0 0   XYZ
    dof rx ry rz
    limits (-20.0 45.0)
           (-30.0 30.0)
           (-30.0 30.0)
  end
  begin
     id 13 
     name thorax
     direction -3.43026e-005 0.997776 0.0666515   
     length 2.10618   
     axis 0 0 0   XYZ
    dof rx ry rz
    limits (-20.0 45.0)
           (-30.0 30.0)
           (-30.0 30.0)
  end
  begin
     id 14 
     name lowerneck
     direction 0.0398646 0.998418 0.0396592   
     length 1.83817   
     axis 0 0 0   XYZ
    dof rx ry rz
    limits (-20.0 45.0)
           (-30.0 30.0)
           (-30.0 30.0)
  end
  begin
     id 15 
     name upperneck
     direction -0.0367268 0.961527 -0.272244   
     length 1.81975   
     axis 0 0 0   XYZ
    dof rx ry rz
    limits (-20.0 45.0)
           (-30.0 30.0)
           (-30.0 30.0)
  end
  begin
     id 16
     name head
     direction -0.0182665 0.99536 -0.0944669  
     length 1.86026  
     axis 0 0 0   XYZ
    dof rx ry rz
    limits (-20.0 45.0)
           (-30.0 30.0)
           (-30.0 30.0)
  end
  begin
     id 17 
     name lclavicle
     direction 0.924239 0.361045 0.124212  
     length 3.26878  
     axis 0 0 0   XYZ
    dof ry rz
    limits (-20.0 10.0)
           (0.0 20.0)
  end
  begin
     id 18 
     name lhumerus
     direction 1 -4.48968e-011 -2.56583e-027   
     length 4.58538   
     axis 180 -30 -90   XYZ
    dof rx ry rz
    limits (-60.0 90.0)
           (-90.0 90.0)
           (-90.0 90.0)
  end
  begin
     id 19
     name lradius
     direction 1 -4.4898e-011 -5.50375e-027   
     length 2.68935   
     axis 180 -30 -90   XYZ
    dof rx
    limits (-10.0 170.0)
  end
  begin
     id 20
     name lwrist
     direction 1 -4.48939e-011 -1.48955e-026   
     length 1.34468   
     axis 9.0955e-015 90 90   XYZ
    dof ry
    limits (-180.0 0.0)
 end
  begin
     id 21 
     name lhand
     direction 1 -4.48936e-011 -2.97907e-026   
     length 0.585058   
     axis 1.90115e-014 90 90   XYZ
    dof rx rz
    limits (-90.0 90.0)
           (-45.0 45.0)
  end
  begin
     id 22 
     name lfingers
     direction 1 -4.49082e-011 -5.96235e-026   
     length 0.471689   
     axis 3.80223e-014 90 90   XYZ
    dof rx
    limits (0.0 90.0)
  end
  begin
     id 23
     name lthumb
     direction 0.707107 -6.3489e-011 0.707107   
     length 0.677253   
     axis -90 45 -3.84942e-014   XYZ
    dof rx rz
    limits (-45.0 45.0)
           (-45.0 45.0)
  end
  begin
     id 24 
     name rclavicle
     direction -0.923098 0.371783 0.0983239   
     length 3.19656  
     axis 0 0 0   XYZ 
    dof ry rz
    limits (-10.0 20.0)
           (-20.0 0.0)
  end
  begin
     id 25 
     name rhumerus
     direction -1 -4.48976e-011 -2.5492e-027  
     length 4.4745   
     axis 180 30 90   XYZ
    dof rx ry rz
    limits (-90.0 60.0)
           (-90.0 90.0)
           (-90.0 90.0)
  end
  begin
     id 26 
     name rradius
     direction -1 -4.48941e-011 -4.36555e-027   
     length 2.93896   
     axis 180 30 90   XYZ
    dof rx
    limits (-10.0 170.0)
  end
  begin
     id 27 
     name rwrist
     direction -1 -4.49044e-011 -1.49032e-026   
     length 1.46948   
     axis 9.0955e-015 -90 -90   XYZ
    dof ry
    limits (-180.0 0.0)
  end
  begin
     id 28
     name rhand
     direction -1 -4.48826e-011 -2.97749e-026   
     length 0.405092   
     axis 1.90115e-014 -90 -90   XYZ
    dof rx rz
    limits (-90.0 90.0)
           (-45.0 45.0)
  end
  begin
     id 29
     name rfingers
     direction -1 -4.49209e-011 -5.96602e-026   
     length 0.326596   
     axis 3.80223e-014 -90 -90   XYZ
    dof rx
    limits (0.0 90.0)
  end
  begin
     id 30
     name rthumb
     direction -0.707107 -6.34776e-011 0.707107   
     length 0.468928   
     axis -90 -45 3.84942e-014   XYZ
    dof rx rz
    limits (-45.0 45.0)
           (-45.0 45.0)
  end
:hierarchy
  begin
    root lhipjoint rhipjoint lowerback
    lhipjoint lfemur
    lfemur ltibia
    ltibia lfoot
    lfoot ltoes
    rhipjoint rfemur
    rfemur rtibia
    rtibia rfoot
    rfoot rtoes
    lowerback upperback
    upperback thorax
    thorax lowerneck lclavicle rclavicle
    lowerneck upperneck
    upperneck head
    lclavicle lhumerus
    lhumerus lradius
    lradius lwrist
    lwrist lhand lthumb
    lhand lfingers
    rclavicle rhumerus
    rhumerus rradius
    rradius rwrist
    rwrist rhand rthumb
    rhand rfingers
  end

#!OML:ASF H:\Punching\Project 1\Capture day 1\Session 1\female.ASF
:FULLY-SPECIFIED
:DEGREES
383
root 3.10031 15.3961 10.3567 13.4059 -13.5794 -2.34467
lowerback -0.976797 -1.20772 1.51438
upperback -6.64389 -1.57421 0.658999
thorax -6.36877 -0.858266 -0.0871702
lowerneck -3.00594 10.5234 16.6042
upperneck 36.7453 16.4756 -10.0394
head 15.9371 8.23763 -4.64278
rclavicle 3.29517e-014 1.17283e-014
rhumerus -50.3867 20.6583 -95.2097
rradius 98.538
rwrist 0.631869
rhand -7.34098 1.35359
rfingers 7.12502
rthumb 18.5429 -27.7826
lclavicle 3.29517e-014 1.17283e-014
lhumerus 40.6101 5.99296 43.5997
lradius 83.8536
lwrist -7.68179
lhand -6.78407 5.6203
lfingers 7.12502
lthumb 19.0785 34.7046
rfemur -2.91942 6.30741 8.36899
rtibia 21.5594
rfoot -16.4505 -7.85911
rtoes -15.9142
lfemur -36.8271 2.25893 -11.5759
ltibia 38.0992
lfoot -9.83711 9.29112
ltoes -4.19925
384
root 3.06404 15.3949 10.3197 13.2759 -13.6029 -2.26494
lowerback -0.952601 -1.20782 1.51621
upperback -6.60184 -1.57614 0.615186
thorax -6.33912 -0.860245 -0.133842
lowerneck -3.04349 10.5217 16.6548
upperneck 36.7943 16.5238 -10.189
head 16.0074 8.24779 -4.70846
rclavicle 1.8077e-014 1.27222e-014
rhumerus -50.0693 21.0555 -95.6549
rradius 98.3353
rwrist 0.0798001
rhand -6.85378 1.01816
rfingers 7.12502
rthumb 19.0114 -28.0727
lclavicle 1.8077e-014 1.27222e-014
lhumerus 40.0149 5.08969 43.9497
lradius 84.3732
lwrist -7.27516
lhand -6.51269 5.92945
lfingers 7.12502
lthumb 19.3394 34.9878
rfemur -2.97118 6.41574 8.38283
rtibia 21.7223
rfoot -16.7394 -7.61416
rtoes -16.2284
lfemur -36.6735 2.16644 -11.4283
ltibia 37.8436
lfoot -9.58671 9.36954
ltoes -4.36658
385
root 3.02505 15.3934 10.2802 13.1468 -13.6288 -2.17344
lowerback -0.935529 -1.20645 1.49844
upperback -6.56085 -1.57656 0.575171
thorax -6.30577 -0.860258 -0.165847
lowerneck -3.0789 10.5162 16.6582
upperneck 36.824 16.5621 -10.3137
head 16.0557 8.2502 -4.75702
rclavicle -5.91975e-014 -1.09332e-014
rhumerus -49.7519 21.4818 -96.0958
rradius 98.1654
rwrist -0.550939
rhand -6.34339 0.605583
rfingers 7.12502
rthumb 19.5022 -28.4363
lclavicle -5.91975e-014 -1.09332e-014
lhumerus 39.3374 4.13475 44.3301
lradius 85.015
lwrist -6.59135
lhand -6.19004 6.32867
lfingers 7.12502
lthumb 19.6497 35.3556
rfemur -3.03542 6.52191 8.40868
rtibia 21.8955
rfoot -17.0567 -7.40689
rtoes -16.6012
lfemur -36.5227 2.047 -11.2712
ltibia 37.5744
lfoot -9.31968 9.47713
ltoes -4.55635
386
root 2.98328 15.3916 10.2382 13.021 -13.6511 -2.07201
lowerback -0.931833 -1.20306 1.46777
upperback -6.51888 -1.5748 0.536354
thorax -6.26324 -0.858409 -0.189847
lowerneck -3.10898 10.4993 16.5941
upperneck 36.8291 16.5766 -10.3997
head 16.0709 8.23763 -4.78169
rclavicle -3.07588e-014 7.95139e-016
rhumerus -49.4267 21.9234 -96.5266
rradius 98.0324
rwrist -1.26465
rhand -5.79305 0.112974
rfingers 7.12502
rthumb 20.0313 -28.8745
lclavicle -3.07588e-014 7.95139e-016
lhumerus 38.5927 3.12649 44.741
lradius 85.7745
lwrist -5.63087
lhand -5.82782 6.79034
lfingers 7.12502
lthumb 19.9979 35.7813
rfemur -3.11234 6.61213 8.45032
rtibia 22.0821
rfoot -17.4043 -7.23967
rtoes -17.0044
lfemur -36.3775 1.90335 -11.1055
ltibia 37.2938
lfoot -9.03337 9.60803
ltoes -4.77221
